<?xml version="1.0" encoding="utf-8"?>
<!-- Generator: Adobe Illustrator 20.1.0, SVG Export Plug-In . SVG Version: 6.00 Build 0)  -->
<svg version="1.1" id="Layer_1" xmlns="http://www.w3.org/2000/svg" xmlns:xlink="http://www.w3.org/1999/xlink" x="0px" y="0px"
	 viewBox="0 0 801.1 445.7" style="enable-background:new 0 0 801.1 445.7;" xml:space="preserve">
<path d="M332.4,299.9l-5.8-5.8C252.4,368.3,181,445.5,181,445.5S273.2,359.1,332.4,299.9z"/>
<path d="M474.9,146.8l5.8,5.8C554.9,78.3,626.2,1.2,626.2,1.2S534.1,87.5,474.9,146.8z"/>
<path d="M481.1,294.3l-5.8,5.8c74.2,74.2,151.4,145.6,151.4,145.6S540.4,353.5,481.1,294.3z"/>
<path d="M326.6,151.4l5.8-5.8C258.2,71.3,181,0,181,0S267.4,92.1,326.6,151.4z"/>
<path d="M307,364.7h2.9l16.8,24.8l16.8-24.8h2.9v41.9h-3.1v-36.4l-16.6,24.1h-0.2L310,370.2v36.4h-3V364.7z"/>
<path d="M377.9,364.4h3l19.5,42.2H397l-5.3-11.7H367l-5.3,11.7h-3.2L377.9,364.4z M390.4,392.1l-11-24.3l-11.1,24.3H390.4z"/>
<path d="M431.5,407.3c-3.1,0.1-6.1-0.5-8.9-1.7c-2.5-1.1-4.8-2.6-6.6-4.6c-1.8-2-3.2-4.3-4.1-6.9c-1-2.7-1.5-5.5-1.4-8.4v-0.1
	c0-2.8,0.5-5.6,1.5-8.2c0.9-2.6,2.4-4.9,4.2-6.9c1.8-2,4.1-3.6,6.6-4.8c2.7-1.2,5.6-1.8,8.5-1.8c1.6,0,3.1,0.1,4.7,0.4
	c1.4,0.2,2.7,0.6,4,1.1c1.2,0.5,2.4,1.1,3.5,1.7c1.1,0.7,2.2,1.5,3.2,2.3l-2,2.3c-1.7-1.5-3.6-2.7-5.6-3.6c-2.5-1-5.2-1.5-7.9-1.4
	c-2.4,0-4.8,0.5-7,1.5c-2.1,1-3.9,2.4-5.5,4.1s-2.8,3.8-3.6,6c-0.8,2.3-1.3,4.7-1.3,7.2v0.1c0,2.6,0.4,5.1,1.2,7.5
	c0.8,2.2,2,4.3,3.6,6s3.5,3,5.7,3.9c2.4,1,4.9,1.5,7.5,1.4c1.3,0,2.6-0.1,3.9-0.4c2.4-0.5,4.7-1.3,6.8-2.6c0.9-0.5,1.8-1.1,2.6-1.8
	v-12h-14v-2.8h17v16.1c-2.1,1.8-4.5,3.3-7.1,4.4C438,406.8,434.8,407.4,431.5,407.3z"/>
<path d="M478.2,364.4h3l19.5,42.2h-3.4l-5.3-11.7h-24.7l-5.3,11.7h-3.2L478.2,364.4z M490.7,392.1l-11-24.3l-11.1,24.3H490.7z"/>
<path d="M314.6,38.6h3.1v27.6l26.7-27.6h4.3l-18.3,18.5l19.1,23.4h-4.1l-17.3-21.2l-10.4,10.5v10.7h-3.1L314.6,38.6L314.6,38.6z"/>
<path d="M360.4,38.6H378c2.3,0,4.7,0.3,6.9,1.1c1.8,0.6,3.5,1.7,4.9,3c1,1,1.8,2.2,2.3,3.5c0.6,1.4,0.8,2.8,0.8,4.3v0.1
	c0,1.6-0.3,3.2-0.9,4.7c-0.6,1.4-1.5,2.6-2.6,3.6s-2.5,1.9-3.9,2.4c-1.6,0.6-3.2,1.1-4.9,1.3l13.8,17.9h-4L377,63.1h-13.7v17.4h-3.1
	V38.6H360.4z M377.7,60.3c1.7,0,3.3-0.2,4.9-0.7c1.4-0.4,2.7-1,3.9-1.9c1.1-0.8,1.9-1.8,2.5-3c0.6-1.3,1-2.6,0.9-4.1v-0.1
	c0.1-2.6-1.1-5.1-3.1-6.7c-2.1-1.6-5.1-2.5-8.9-2.5h-14.3v18.9L377.7,60.3L377.7,60.3z"/>
<path d="M422.7,38.3h3l19.5,42.2h-3.4l-5.3-11.7h-24.7l-5.3,11.7h-3.2L422.7,38.3z M435.1,66l-11-24.3L413,66H435.1z"/>
<path d="M453.5,38.6h3.5l16.4,38.6l16.5-38.6h3.3l-18.5,42.2h-2.8L453.5,38.6z"/>
<path d="M0,180.9h23.2v31.4H53v-31.4h23.2v83.9H53.1v-31.9H23.2v31.9H0V180.9z"/>
<path d="M96.2,180.9h67.3v19.8H119v12.7h40.3v18.3H119V245h45.1v19.8H96.2V180.9z"/>
<path d="M210.1,180.3h22.4l35.7,84.5h-24.9l-6.1-15h-32.4l-6,15h-24.4L210.1,180.3z M230.5,231.8l-9.3-23.8l-9.5,23.8H230.5
	L230.5,231.8z"/>
<path d="M279.7,180.9h39.7c5.6-0.1,11.1,0.7,16.4,2.4c4.1,1.4,7.8,3.7,10.9,6.7c5,4.8,7.4,11.3,7.4,19.5v0.2
	c0,6.5-1.6,11.8-4.7,16.1c-3.2,4.3-7.6,7.7-12.6,9.7l20,29.2H330l-16.9-25.4h-10.2v25.4h-23.2L279.7,180.9L279.7,180.9z
	 M318.3,221.1c4,0,7.1-0.9,9.2-2.7c2.1-1.8,3.3-4.5,3.2-7.2V211c0-3.4-1.1-5.9-3.4-7.5c-2.2-1.6-5.3-2.5-9.2-2.5h-15.2v20.1H318.3
	L318.3,221.1z"/>
<path d="M391.3,201.3h-25.2v-20.4h73.6v20.4h-25.2v63.5h-23.2L391.3,201.3L391.3,201.3z"/>
<path d="M492,266.4c-5.8,0-11.5-1.1-16.9-3.2c-5.1-2.1-9.8-5.1-13.7-9c-8.2-8.3-12.7-19.5-12.6-31.1v-0.2
	c-0.1-11.6,4.5-22.7,12.6-31c4-4,8.7-7.2,14-9.3c5.6-2.3,11.6-3.4,17.7-3.4c3.9,0,7.9,0.4,11.7,1.3c3.4,0.8,6.6,2,9.6,3.6
	c2.9,1.5,5.5,3.4,7.9,5.6c2.3,2.1,4.4,4.5,6.3,7.1L511,210.2c-2.2-2.8-4.9-5.3-7.9-7.2c-3.2-1.8-6.8-2.7-10.4-2.6
	c-2.8,0-5.6,0.6-8.1,1.7c-2.4,1.1-4.5,2.7-6.3,4.7c-1.8,2.1-3.2,4.5-4.1,7.1c-1,2.8-1.5,5.7-1.5,8.6v0.2c0,3,0.5,6,1.5,8.8
	c0.9,2.6,2.3,5,4.1,7.1c1.7,2,3.9,3.6,6.3,4.7c2.5,1.2,5.3,1.8,8.1,1.7c2,0,4-0.2,5.9-0.7c1.7-0.5,3.4-1.2,4.9-2.1s2.9-2,4.2-3.2
	c1.4-1.3,2.7-2.7,3.9-4.1l17.5,12.5c-2,2.7-4.2,5.2-6.5,7.5c-2.4,2.3-5.1,4.4-8,6c-3.2,1.7-6.6,3.1-10.1,4
	C500.4,266,496.2,266.5,492,266.4z"/>
<path d="M584.6,266.4c-6.2,0.1-12.3-1.1-18-3.4c-5.3-2.1-10.2-5.3-14.3-9.3c-4-3.9-7.2-8.6-9.4-13.8c-2.3-5.3-3.5-11.1-3.4-16.9
	v-0.2c-0.1-11.6,4.6-22.8,12.9-30.9c4.2-4,9-7.2,14.4-9.3c11.6-4.6,24.4-4.6,35.9,0c5.3,2.1,10.2,5.3,14.3,9.3
	c4,3.9,7.2,8.6,9.4,13.8c2.3,5.3,3.5,11.1,3.4,16.9v0.2c0.1,11.6-4.6,22.8-12.9,30.9c-4.2,4-9,7.2-14.4,9.3
	C596.9,265.3,590.7,266.5,584.6,266.4z M584.8,245.5c3,0,6-0.6,8.8-1.8c2.6-1.1,4.8-2.8,6.7-4.9s3.3-4.5,4.3-7.1
	c1-2.8,1.6-5.7,1.6-8.6v-0.2c0-2.9-0.5-5.9-1.6-8.6c-1-2.7-2.5-5.1-4.4-7.2c-1.9-2.1-4.3-3.8-6.8-5c-5.6-2.5-11.9-2.5-17.5-0.1
	c-5.2,2.3-9.1,6.7-11.1,12c-1,2.8-1.5,5.7-1.5,8.6v0.2c0,2.9,0.5,5.9,1.6,8.6c1,2.6,2.5,5.1,4.4,7.2s4.2,3.8,6.8,5
	C578.7,244.9,581.7,245.5,584.8,245.5z"/>
<path d="M643.6,180.9h39.7c5.6-0.1,11.1,0.7,16.4,2.4c4.1,1.4,7.8,3.7,10.9,6.7c5,4.8,7.4,11.3,7.4,19.5v0.2
	c0,6.5-1.6,11.8-4.7,16.1c-3.2,4.3-7.6,7.7-12.6,9.7l20,29.2H694l-16.9-25.4h-10.2v25.4h-23.2L643.6,180.9L643.6,180.9z
	 M682.2,221.1c4,0,7.1-0.9,9.2-2.7c2.1-1.8,3.3-4.5,3.2-7.2V211c0-3.4-1.1-5.9-3.4-7.5c-2.2-1.6-5.3-2.5-9.2-2.5h-15.2v20.1H682.2
	L682.2,221.1z"/>
<path d="M733.1,180.9h67.3v19.8H756v12.7h40.3v18.3H756V245h45.1v19.8h-67.9L733.1,180.9L733.1,180.9z"/>
</svg>
